<?xml version="1.0" encoding="UTF-8"?>
<svg id="Layer_1" data-name="Layer 1" xmlns="http://www.w3.org/2000/svg" viewBox="0 0 758.06 1056">
  <defs>
    <style>
      .cls-1 {
        fill: #f5e6c5;
      }
    </style>
  </defs>
  <path class="cls-1" d="M758.06,507.26c0-169.23-110.91-312.53-264-361.24v-55.51c0-4.17-3.38-7.54-7.54-7.54h-37.71V0h-22.63v82.97h-17.6V0h-22.63v82.97h-17.6V0h-22.63v82.97h-17.6V0h-22.63v82.97h-33.94c-4.17,0-7.54,3.38-7.54,7.54v55.51C110.91,194.73,0,338.03,0,507.26c0,85.88,28.58,165.08,76.73,228.64-34.93-69.15-9.47-101.97-9.47-101.97,82.97-3.77,94.29,56.57,94.29,56.57,79.2-82.97,79.2,26.4,75.43,22.63-3.77-3.77-41.49-15.09-41.49,22.63,0,1.35.21,2.71.52,4.07l123.51.32c.39-3.71.6-7.62.42-11.94-3.77-90.51-64.11-33.94-64.11-33.94,0,0-11.31-56.57,37.71-75.43,19.28-7.41,33.06-2.02,42.7,7.24-.35-14.49,3.41-32.91,15.98-55.22,12.16-22.78,28.05-38.76,28.05-38.76,36.2,41.63,44.14,73.63,42.64,95.67,9.65-9.34,23.47-14.83,42.85-7.38,49.03,18.86,37.71,75.43,37.71,75.43,0,0-60.34-56.57-64.11,33.94-.16,3.83,0,7.34.29,10.69l123.81.32c.23-1.16.36-2.32.36-3.47,0-37.71-37.71-26.4-41.49-22.63-3.77,3.77-3.77-105.6,75.43-22.63,0,0,11.31-60.34,94.29-56.57,0,0,23.21,29.84-4.99,92.64,44.67-62.19,70.99-138.45,70.99-220.87Z"/>
  <path class="cls-1" d="M439.66,740.46l-120.14-.31c-7.53,71.4-115.4,34.57-123.51-.32l-116.49-.3c44.91,57.83,106.24,102.21,176.94,126.38v190.09h22.63v-226.29h22.63v226.29h22.63v-226.29h22.63v226.29h22.63v-226.29h22.63v226.29h22.63v-226.29h22.63v226.29h22.63v-226.29h22.63v226.29h22.63v-191.36c68.5-24.22,127.99-67.5,171.99-123.56l-113.89-.29c-7.03,35.27-117.37,73.18-123.81-.32Z"/>
</svg>